# xmcd
#
# Track frame offsets:
#	150
#	13343
#	32302
#	46314
#	59717
#	74303
#	88680
#	98207
#	111262
#	124407
#	135694
#
# Disc length: 1935 seconds
#
# Revision: 1
# Processed by: cddbd v1.5.2PL0 Copyright (c) Steve Scherf et al.
# Submitted via: audiograbber 1.83.01
#
DISCID=9d078d0b
DTITLE=Chris Shiflett - Hard Lessons
DYEAR=2019
DGENRE=Country
TTITLE0=Liar's Word
TTITLE1=This Ol' World
TTITLE2=Welcome To Your First Heartache
TTITLE3=The Hardest Lessons
TTITLE4=The One You Go Home To
TTITLE5=Fool's Gold
TTITLE6=I Thought You'd Never Leave
TTITLE7=Weak Heart
TTITLE8=Marfa On My Mind
TTITLE9=Leaving Again
TTITLE10=The Hardest Lessons (reprise)
EXTD=
EXTT0=
EXTT1=
EXTT2=
EXTT3=
EXTT4=
EXTT5=
EXTT6=
EXTT7=
EXTT8=
EXTT9=
EXTT10=
PLAYORDER=
